<svg id="svg" xmlns="http://www.w3.org/2000/svg" xmlns:xlink="http://www.w3.org/1999/xlink" width="400" height="400" viewBox="0, 0, 400,400"><g id="svgg"><path id="path0" d="M195.343 1.710 C 193.015 4.208,192.926 23.809,195.229 26.654 C 197.320 29.236,202.680 29.236,204.771 26.654 C 207.233 23.613,206.976 4.079,204.442 1.699 C 201.996 -0.599,197.488 -0.593,195.343 1.710 M98.494 27.840 C 96.088 30.899,96.426 32.404,101.577 41.567 C 107.575 52.238,110.732 54.433,115.389 51.171 C 118.856 48.743,118.507 45.922,113.669 37.257 C 106.870 25.080,102.701 22.492,98.494 27.840 M292.399 27.539 C 288.537 31.720,281.866 45.125,282.411 47.608 C 283.352 51.889,288.317 53.717,291.999 51.138 C 294.132 49.644,303.125 33.812,303.125 31.551 C 303.125 26.456,295.897 23.752,292.399 27.539 M99.920 88.477 C 97.270 90.231,57.220 148.765,52.775 157.380 C 50.420 161.945,50.273 165.636,52.276 169.922 C 54.305 174.262,103.701 223.438,106.032 223.438 C 110.645 223.438,114.065 219.471,112.886 215.487 C 112.590 214.489,102.805 204.092,91.140 192.383 L 69.933 171.094 108.359 171.094 L 146.785 171.094 164.058 223.242 C 173.559 251.924,182.183 277.984,183.224 281.154 L 185.116 286.918 156.996 258.362 C 136.627 237.676,128.250 229.668,126.605 229.306 C 121.740 228.238,117.516 232.750,119.224 237.192 C 120.277 239.933,190.127 310.523,193.254 312.007 C 196.311 313.458,201.973 313.673,205.223 312.461 C 208.520 311.232,345.894 173.817,347.720 169.922 C 351.191 162.516,351.499 163.144,325.402 124.609 C 296.425 81.824,302.814 86.719,275.941 86.719 C 253.038 86.719,253.125 86.696,253.125 92.714 C 253.125 98.093,253.919 98.370,270.027 98.615 L 284.112 98.828 266.470 125.531 C 256.767 140.218,248.589 152.469,248.298 152.755 C 247.844 153.199,211.719 99.949,211.719 98.837 C 211.719 98.617,217.289 98.438,224.098 98.438 C 238.231 98.438,239.063 98.105,239.063 92.442 C 239.063 86.279,244.411 86.719,169.390 86.719 L 102.575 86.719 99.920 88.477 M26.563 100.000 C 24.590 101.972,24.488 106.519,26.373 108.404 C 28.744 110.775,43.503 118.750,45.520 118.750 C 50.850 118.750,53.732 111.576,49.805 108.085 C 42.062 101.204,29.669 96.893,26.563 100.000 M187.500 98.837 C 187.500 99.497,151.470 153.296,151.223 153.004 C 151.097 152.856,142.857 140.518,132.913 125.586 L 114.833 98.438 151.166 98.438 C 171.150 98.438,187.500 98.617,187.500 98.837 M358.750 102.701 C 349.297 108.112,348.438 108.934,348.438 112.564 C 348.438 119.756,353.647 120.312,364.331 114.263 C 373.926 108.830,375.000 107.827,375.000 104.297 C 375.000 97.221,369.300 96.661,358.750 102.701 M217.868 131.445 L 235.949 158.594 199.614 158.594 L 163.279 158.594 181.444 131.326 C 191.435 116.328,199.649 104.111,199.698 104.177 C 199.747 104.243,207.924 116.514,217.868 131.445 M121.410 131.327 C 131.177 145.979,139.024 158.112,138.847 158.288 C 138.670 158.465,122.476 158.518,102.860 158.406 L 67.194 158.203 84.964 131.466 C 94.738 116.761,102.941 104.720,103.193 104.708 C 103.446 104.697,111.644 116.675,121.410 131.327 M314.768 131.641 L 332.726 158.203 296.710 158.406 C 276.900 158.518,260.548 158.465,260.372 158.288 C 259.867 157.784,295.518 104.625,296.201 104.864 C 296.536 104.982,304.891 117.031,314.768 131.641 M239.063 171.313 C 239.063 171.434,236.960 177.818,234.391 185.499 C 229.403 200.410,229.251 202.054,232.615 204.700 C 238.409 209.257,240.880 206.256,247.257 186.914 L 252.474 171.094 291.081 171.094 C 312.314 171.094,329.688 171.183,329.688 171.291 C 329.688 171.400,303.699 197.475,271.935 229.237 L 214.182 286.986 224.279 256.188 C 229.832 239.249,234.375 224.584,234.375 223.597 C 234.375 221.094,231.021 217.969,228.334 217.969 C 223.517 217.969,223.377 218.274,211.199 255.270 L 199.716 290.159 180.321 231.993 C 169.654 200.002,160.730 173.213,160.489 172.461 C 160.076 171.171,162.286 171.094,199.557 171.094 C 221.285 171.094,239.063 171.193,239.063 171.313 M1.710 195.343 C -0.832 197.711,-0.652 202.498,2.058 204.631 C 5.038 206.974,23.801 207.081,26.654 204.771 C 29.236 202.680,29.236 197.320,26.654 195.229 C 23.809 192.926,4.208 193.015,1.710 195.343 M373.346 195.229 C 371.955 196.356,371.520 197.492,371.520 200.000 C 371.520 205.527,373.141 206.250,385.528 206.250 C 394.821 206.250,396.094 206.084,397.942 204.631 C 400.691 202.468,400.815 197.913,398.192 195.449 C 395.609 193.022,376.283 192.851,373.346 195.229 M35.156 285.999 C 25.926 291.304,25.000 292.202,25.000 295.852 C 25.000 302.677,30.568 303.264,40.826 297.520 C 50.384 292.169,51.563 291.060,51.563 287.421 C 51.563 280.136,46.171 279.669,35.156 285.999 M350.496 282.869 C 345.264 286.984,347.700 291.096,359.174 297.520 C 369.526 303.316,375.000 302.688,375.000 295.703 C 375.000 292.173,373.926 291.170,364.331 285.737 C 355.697 280.848,353.614 280.417,350.496 282.869 M108.001 348.862 C 105.868 350.356,96.875 366.188,96.875 368.449 C 96.875 373.544,104.103 376.248,107.601 372.461 C 111.463 368.280,118.134 354.875,117.589 352.392 C 116.648 348.111,111.683 346.283,108.001 348.862 M284.611 348.829 C 279.047 352.726,289.497 374.219,296.954 374.219 C 304.175 374.219,304.618 369.454,298.423 358.433 C 292.425 347.762,289.268 345.567,284.611 348.829 M197.121 371.851 C 194.256 373.055,193.750 375.199,193.750 386.141 C 193.750 398.172,194.599 400.000,200.189 400.000 C 205.301 400.000,206.250 397.735,206.250 385.528 C 206.250 372.694,203.811 369.040,197.121 371.851 " stroke="none" fill="#000000" fill-rule="evenodd"></path></g></svg>